<svg xmlns="http://www.w3.org/2000/svg" xmlns:xlink="http://www.w3.org/1999/xlink" width="275.173" height="456.199" viewBox="0 0 275.173 456.199">
  <defs>
    <clipPath id="clip-path">
      <path id="Path_30234" data-name="Path 30234" d="M7.181,1.105a6.845,6.845,0,0,0-3.591,9,139.569,139.569,0,0,0,12.382,22.3A134.562,134.562,0,0,0,31.945,51.7C43.683,63.5,58.531,72.341,74.4,75.718,59.067,70.09,46.47,59.745,36.983,47.256A122.9,122.9,0,0,1,24.816,27.262a121.825,121.825,0,0,1-8.308-21.44l-.054-.268L16.079,4.7A6.744,6.744,0,0,0,9.861.569a7.7,7.7,0,0,0-2.68.536" transform="translate(-3.028 -0.569)" fill="none"/>
    </clipPath>
    <radialGradient id="radial-gradient" cx="-0.615" cy="-2.759" r="8.823" gradientUnits="objectBoundingBox">
      <stop offset="0" stop-color="#eac356"/>
      <stop offset="0.123" stop-color="#eac356"/>
      <stop offset="0.359" stop-color="#d40b01"/>
      <stop offset="0.741" stop-color="#710702"/>
      <stop offset="1" stop-color="#710702"/>
    </radialGradient>
    <clipPath id="clip-path-2">
      <path id="Path_30235" data-name="Path 30235" d="M8.939.553A6.828,6.828,0,0,0,3.526,8.54a66.253,66.253,0,0,0,8.255,21.28A69.739,69.739,0,0,0,25.716,46.7a71.059,71.059,0,0,0,17.9,11.578C50,61.337,56.751,63.106,63.452,64.606,57.019,61.98,50.8,59.193,45.281,55.28A64.371,64.371,0,0,1,30.594,41.987,61.114,61.114,0,0,1,20.946,25.37a56.5,56.5,0,0,1-3.913-17.9V7.039l-.107-1.072A6.721,6.721,0,0,0,10.279.446a5.657,5.657,0,0,0-1.34.107" transform="translate(-3.406 -0.446)" fill="none"/>
    </clipPath>
    <radialGradient id="radial-gradient-2" cx="-1.024" cy="-3.432" r="10.449" xlink:href="#radial-gradient"/>
    <clipPath id="clip-path-3">
      <path id="Path_30236" data-name="Path 30236" d="M9.108.6a6.9,6.9,0,0,0-5.2,8.2,55.13,55.13,0,0,0,6.325,15.759A46.76,46.76,0,0,0,20.847,37.053C29.262,44.181,40.3,46.486,50.113,45.9,40.3,44.235,31.138,39.625,25.671,32.228a37.849,37.849,0,0,1-6.164-11.953,42.569,42.569,0,0,1-2.09-12.757A4.674,4.674,0,0,0,17.256,5.8,6.8,6.8,0,0,0,10.609.443,7.539,7.539,0,0,0,9.108.6" transform="translate(-3.749 -0.443)" fill="none"/>
    </clipPath>
    <radialGradient id="radial-gradient-3" cx="-1.78" cy="-4.802" r="13.885" xlink:href="#radial-gradient"/>
    <clipPath id="clip-path-4">
      <path id="Path_30237" data-name="Path 30237" d="M10.88.383A6.991,6.991,0,0,0,4.073,7.512v.375a37.955,37.955,0,0,0,2.68,12.918,29.1,29.1,0,0,0,7.075,10.559C20.1,37.314,28.568,38.547,35.7,37.9c-7.022-1.5-13.454-5.2-16.4-10.559A4.422,4.422,0,0,0,22.19,22.52c-.214-1.233.107-2.09-.054-2.2a3.76,3.76,0,0,1,3.055,1.286l2.519,2.734a6.76,6.76,0,0,0,2.948,2.037,4.512,4.512,0,0,0,4.717-1.608c1.983-3.109,2.358-5.575,3.323-7.665,1.662-4.5,5.414-6.861,10.023-4.234,1.126.482,1.983,1.34,3.645,1.822a5.142,5.142,0,0,0,4.181-1.286A18.072,18.072,0,0,0,61,7.03c-2.573,4.234-7.343,9-11.1,3.859-2.2-1.5-5.253-2.841-8.523-1.822-3.216,1.018-5.146,3.591-6.647,5.9-1.126,1.769-1.93,3.43-2.734,4.663a19.29,19.29,0,0,0-1.822-2.519,10.579,10.579,0,0,0-10.238-4.4,7.118,7.118,0,0,0-3.216,1.662A22.4,22.4,0,0,1,17.58,9.6a6.267,6.267,0,0,0,.375-2.466A6.97,6.97,0,0,0,11.041.383H10.88" transform="translate(-4.072 -0.383)" fill="none"/>
    </clipPath>
    <radialGradient id="radial-gradient-4" cx="-2.123" cy="-4.696" r="13.01" xlink:href="#radial-gradient"/>
    <clipPath id="clip-path-5">
      <path id="Path_30238" data-name="Path 30238" d="M136.346,5.789c-5.038,9.434-4.931,15.973-5.092,23.692A74.422,74.422,0,0,0,134.9,50.224a110.975,110.975,0,0,0,10.023,21.655C127.5,78.311,109.546,86.459,94,100.18A53.906,53.906,0,0,0,64.628,82.867a46.213,46.213,0,0,0-27.5,3.323c-8.415,3.752-14.311,9.595-19.564,15.383a90.988,90.988,0,0,0-11.685,18.76c-1.447,3.7-3,7.183-4.127,10.935A112.606,112.606,0,0,0,.039,143.115C-.6,159.57,6.953,173.721,15.315,184.28c17.206,21.387,38.914,34.841,56.5,51.725,8.415,8.308,16.08,18.546,14.365,30.177-1.983,11.524-12.328,20.8-23.263,26.425,11.471-4.4,23.477-12.007,27.658-25.407,3.859-13.883-4.127-27.39-12.06-37.2C62,210.116,42.223,193.714,30.162,173.882c-5.95-9.755-9.219-19.94-7.611-28.891.482-2.2,1.34-4.4,1.876-6.593,1.018-2.144,2.358-4.234,3.377-6.325a72.836,72.836,0,0,1,9.7-12.114c7.4-6.647,14.472-8.469,20.1-6.218,5.789,1.822,11.739,8.737,13.079,15.062a14.591,14.591,0,0,0,.965,2.948,65.32,65.32,0,0,0-3.538,13.615c-1.93,13.347-.107,26,2.894,37.521,13.132,45.454,39.718,79.651,55.8,118.244a152.83,152.83,0,0,1,9.434,28.891c2.2,9.595,1.715,19.672,1.286,30.07-1.447,20.154-7.611,41.058-24.764,51.35-17.045,10.559-39.343,9.38-60.623,8.147a45.7,45.7,0,0,0-30.874,10.72A69.928,69.928,0,0,0,2.129,456.2c9.595-18.707,28.677-34.894,49.688-32.053,20.8,2.466,44.114,6.111,65.393-4.878,10.452-5.307,18.76-14.633,24.067-24.978,5.521-10.345,7.826-21.6,9.755-32.7,1.233-10.881,2.626-22.405.8-34.037a165.157,165.157,0,0,0-8.147-32.911c-14.365-41.755-38.432-79.437-46.2-117.869-3.806-19.082-.8-35.538,10.881-46.74,11.471-11.685,30.177-19.082,49.152-24.335l.429-.107,1.394-.429a18.708,18.708,0,0,0,6.218-3.966c3.859,4.61,7.826,9.112,11.953,13.347,2.144,2.3,4.449,4.288,6.593,6.486-8.791,3-17.688,7.022-25.621,13.776a63.073,63.073,0,0,0-18.171,25.943c-3.591,10.559-5.253,19.672-3.806,32.268a25.525,25.525,0,0,0,.536,2.787,18.161,18.161,0,0,0,35-9.7c-.8-3-.8-9.97.429-14.579a30.356,30.356,0,0,1,7.4-13.293c7.022-7.558,21.869-13.883,31.732-13.829,10.506-.375,19.243,6.807,22.03,18.117,2.573,11.256-1.662,24.817-10.238,35.645-8.791,11.417-21.065,18.492-35.055,26.854-14.419,8.255-27.819,20.047-34.841,35.859-3.913,7.665-5.039,16.563-4.5,25.085,1.018,8.576,5.36,17.045,12.435,21.976a26.933,26.933,0,0,0,24.067,3.27c4.074-.75,7.451-3.323,11.042-4.771l9.648-7.129-10.131,6.111c-3.752,1.126-7.183,3.323-11.042,3.591a23.682,23.682,0,0,1-20.8-4.61,25.815,25.815,0,0,1-8.415-18.921c.268-7.129,1.769-14.365,5.735-20.529,7.183-12.7,19.672-21.869,33.125-27.98,13.668-6.432,30.392-13.829,42.345-26.854,12.06-12.65,21.333-31.035,18.921-51.35A48.293,48.293,0,0,0,242.583,131c-6.218-6.754-14.794-10.774-23.531-12.65a257.392,257.392,0,0,1-25.139-20.368,231.177,231.177,0,0,1-23.584-25.139c-6.539-9.166-12.221-18.868-15.491-28.891A52.4,52.4,0,0,1,152.1,29.159c-.054-4.342,1.554-10.184,2.412-11.363l.268-.375a11.084,11.084,0,0,0,.8-1.34,10.909,10.909,0,0,0-4.4-14.794A11.251,11.251,0,0,0,146.048,0a10.994,10.994,0,0,0-9.7,5.789" transform="translate(0)" fill="none"/>
    </clipPath>
    <radialGradient id="radial-gradient-5" cx="0.612" cy="-0.272" r="1.936" xlink:href="#radial-gradient"/>
    <clipPath id="clip-path-6">
      <path id="Path_30239" data-name="Path 30239" d="M21.88,5.022A39.5,39.5,0,0,0,9.927,10.49c-3.538,2.734-6.915,6-8.04,11.471v.268a2.239,2.239,0,0,0,2.037,2.466A2.358,2.358,0,0,0,6.39,22.6l.054-.322c.214-3,2.68-6.7,5.628-9.112A35.808,35.808,0,0,1,22.524,7.22C30.3,4.272,38.765,3.093,47.127,2.5H43.964A83.432,83.432,0,0,0,21.88,5.022" transform="translate(-1.87 -2.503)" fill="none"/>
    </clipPath>
    <radialGradient id="radial-gradient-6" cx="0.296" cy="-5.593" r="17.725" xlink:href="#radial-gradient"/>
    <clipPath id="clip-path-7">
      <path id="Path_30240" data-name="Path 30240" d="M19.48,6.783c-4.074.643-7.183,5.039-8.576,7.987a15.524,15.524,0,0,1-7.236,6.271H3.454l-.268.107A2.434,2.434,0,0,0,2.114,24.2a2.313,2.313,0,0,0,3.055,1.072,18.048,18.048,0,0,0,7.772-7.451c1.447,2.3,5.2,2.787,8.737.911,3.645-1.93,5.521-5.521,4.181-8.04C25,9.035,22.911,8.606,20.553,8.82c6.7-2.519,13.99-4.181,21.012-6.164C34.221,4,26.877,4.8,19.48,6.783" transform="translate(-1.927 -2.656)" fill="none"/>
    </clipPath>
    <radialGradient id="radial-gradient-7" cx="0.465" cy="-6.246" r="19.326" xlink:href="#radial-gradient"/>
    <clipPath id="clip-path-8">
      <path id="Path_30241" data-name="Path 30241" d="M13.581,11.913c-3,2.09-7.022,2.68-11.471,3.806,3.966,2.519,9.273,2.466,13.829.054a11.408,11.408,0,0,0,4.717-5.95A11.653,11.653,0,0,0,20.817,2.8c-2.251,4.074-3.966,7.451-7.236,9.112" transform="translate(-2.11 -2.801)" fill="none"/>
    </clipPath>
    <radialGradient id="radial-gradient-8" cx="0.583" cy="-12.195" r="36.142" xlink:href="#radial-gradient"/>
  </defs>
  <g id="Group_35068" data-name="Group 35068" transform="translate(0)">
    <g id="Group_35053" data-name="Group 35053" transform="translate(162.263 30.499)">
      <g id="Group_35052" data-name="Group 35052" clip-path="url(#clip-path)">
        <rect id="Rectangle_22740" data-name="Rectangle 22740" width="101.976" height="101.06" transform="matrix(0.527, -0.85, 0.85, 0.527, -34.602, 54.268)" fill="url(#radial-gradient)"/>
      </g>
    </g>
    <g id="Group_35055" data-name="Group 35055" transform="translate(182.538 23.906)">
      <g id="Group_35054" data-name="Group 35054" clip-path="url(#clip-path-2)">
        <rect id="Rectangle_22741" data-name="Rectangle 22741" width="86.479" height="85.338" transform="matrix(0.527, -0.85, 0.85, 0.527, -29.318, 46.333)" fill="url(#radial-gradient-2)"/>
      </g>
    </g>
    <g id="Group_35057" data-name="Group 35057" transform="translate(200.936 23.745)">
      <g id="Group_35056" data-name="Group 35056" clip-path="url(#clip-path-3)">
        <rect id="Rectangle_22742" data-name="Rectangle 22742" width="63.906" height="64.218" transform="translate(-21.269 33.251) rotate(-58.188)" fill="url(#radial-gradient-3)"/>
      </g>
    </g>
    <g id="Group_35059" data-name="Group 35059" transform="translate(218.248 20.529)">
      <g id="Group_35058" data-name="Group 35058" clip-path="url(#clip-path-4)">
        <rect id="Rectangle_22743" data-name="Rectangle 22743" width="62.466" height="68.536" transform="matrix(0.527, -0.85, 0.85, 0.527, -17.149, 27.561)" fill="url(#radial-gradient-4)"/>
      </g>
    </g>
    <g id="Group_35061" data-name="Group 35061" transform="translate(0)">
      <g id="Group_35060" data-name="Group 35060" clip-path="url(#clip-path-5)">
        <rect id="Rectangle_22744" data-name="Rectangle 22744" width="524.169" height="460.528" transform="matrix(0.527, -0.85, 0.85, 0.527, -204.96, 329.433)" fill="url(#radial-gradient-5)"/>
      </g>
    </g>
    <g id="Group_35063" data-name="Group 35063" transform="translate(100.201 134.163)">
      <g id="Group_35062" data-name="Group 35062" clip-path="url(#clip-path-6)">
        <rect id="Rectangle_22745" data-name="Rectangle 22745" width="42.835" height="50.306" transform="translate(-10.108 16.065) rotate(-58.187)" fill="url(#radial-gradient-6)"/>
      </g>
    </g>
    <g id="Group_35065" data-name="Group 35065" transform="translate(103.248 142.364)">
      <g id="Group_35064" data-name="Group 35064" clip-path="url(#clip-path-7)">
        <rect id="Rectangle_22746" data-name="Rectangle 22746" width="40.727" height="46.14" transform="matrix(0.527, -0.85, 0.85, 0.527, -10.668, 16.723)" fill="url(#radial-gradient-7)"/>
      </g>
    </g>
    <g id="Group_35067" data-name="Group 35067" transform="translate(113.083 150.137)">
      <g id="Group_35066" data-name="Group 35066" clip-path="url(#clip-path-8)">
        <rect id="Rectangle_22747" data-name="Rectangle 22747" width="23.375" height="24.672" transform="translate(-6.915 11.149) rotate(-58.187)" fill="url(#radial-gradient-8)"/>
      </g>
    </g>
  </g>
</svg>
