<svg width="130" height="35" viewBox="0 0 130 35" fill="none" xmlns="http://www.w3.org/2000/svg">
<path d="M117.646 12.3931C117.874 12.3931 117.988 12.702 117.988 13.3199C117.988 13.6557 117.847 14.0653 117.565 14.5489C117.283 15.019 116.914 15.4556 116.457 15.8585C116.014 16.2481 115.517 16.5704 114.966 16.8256C114.415 17.0809 113.891 17.2085 113.394 17.2085C112.897 17.2085 112.508 17.1144 112.226 16.9264C111.944 16.7383 111.722 16.4831 111.561 16.1608C111.333 15.7041 111.145 14.8377 110.997 13.5616C110.849 12.2722 110.701 11.3722 110.553 10.8618C110.204 10.7946 109.895 10.6603 109.627 10.4588C109.371 10.2439 109.244 9.98871 109.244 9.6932C109.244 9.38426 109.378 9.16263 109.647 9.02831C109.929 8.89399 110.245 8.82683 110.594 8.82683C110.956 8.82683 111.279 8.91414 111.561 9.08876C111.937 8.77982 112.239 8.41715 112.468 8.00076C112.709 7.57093 112.83 7.00006 112.83 6.28816C112.83 5.56283 112.588 4.98525 112.105 4.55542C111.621 4.1256 110.909 3.91068 109.969 3.91068C109.042 3.91068 108.33 3.98456 107.833 4.13231C107.337 4.28006 106.907 4.44125 106.544 4.61587C106.195 4.79048 105.879 4.95167 105.597 5.09942C105.328 5.24718 105.073 5.32105 104.831 5.32105C104.59 5.32105 104.469 5.24718 104.469 5.09942C104.469 4.93824 104.596 4.68303 104.852 4.33379C105.107 3.98456 105.483 3.63532 105.98 3.28609C107.229 2.413 108.639 1.98318 110.211 1.99661C111.783 1.99661 113.079 2.29211 114.1 2.88313C115.295 3.5816 115.893 4.6293 115.893 6.02624C115.906 7.1814 115.604 8.14179 114.986 8.90742C114.368 9.67305 113.603 10.2238 112.689 10.5596C112.891 11.0028 113.052 11.4797 113.173 11.9901C113.307 12.5005 113.435 12.9706 113.556 13.4005C113.676 13.8303 113.811 14.1862 113.959 14.4683C114.12 14.7504 114.308 14.8914 114.523 14.8914C114.751 14.8914 115.02 14.7638 115.329 14.5086C115.651 14.24 115.967 13.9512 116.276 13.6422C116.585 13.3333 116.86 13.0512 117.102 12.796C117.357 12.5274 117.538 12.3931 117.646 12.3931ZM108.881 5.13972C109.056 5.13972 109.143 5.36807 109.143 5.82476C109.143 6.28145 109.116 6.71128 109.063 7.11424C108.942 7.8933 108.787 8.61863 108.599 9.29024C108.116 11.117 107.874 12.1849 107.874 12.4938V15.4556C107.874 16.1809 107.598 16.6779 107.048 16.9465C106.793 17.0674 106.544 17.1816 106.302 17.2891C106.074 17.3965 105.812 17.4502 105.516 17.4502C104.952 17.4502 104.67 16.8055 104.67 15.516C104.67 14.2131 104.972 12.5744 105.577 10.5999C106.181 8.62535 106.813 7.12095 107.471 6.08668C107.605 5.8852 107.8 5.677 108.055 5.46209C108.31 5.24718 108.586 5.13972 108.881 5.13972Z" fill="#1987B6"/>
<path d="M127.496 13.884C127.845 13.6288 128.161 13.3199 128.443 12.9572C128.725 12.5811 128.96 12.3931 129.148 12.3931C129.35 12.3931 129.45 12.6886 129.45 13.2796C129.45 13.8572 129.283 14.4079 128.947 14.9317C128.624 15.4421 128.195 15.872 127.657 16.2212C126.556 16.9465 125.253 17.3092 123.748 17.3092C121.922 17.3092 120.505 16.8525 119.497 15.9391C118.49 15.0257 117.986 13.7564 117.986 12.1311C117.986 10.1297 118.47 8.2291 119.437 6.4292C119.759 5.83819 120.122 5.29419 120.525 4.7972C120.216 4.43453 119.967 4.05844 119.779 3.6689C119.605 3.26594 119.517 2.96372 119.517 2.76224C119.517 2.39957 119.652 2.21824 119.92 2.21824C120.108 2.23167 120.323 2.35928 120.565 2.60105L121.19 3.2055C121.351 3.36668 121.519 3.501 121.693 3.60846C123.023 2.48016 124.454 1.91602 125.985 1.91602C127.53 1.91602 128.53 2.34584 128.987 3.2055C129.148 3.52787 129.229 3.92411 129.229 4.39424C129.229 5.10614 128.92 5.70387 128.302 6.18742C127.684 6.67098 126.851 6.91276 125.804 6.91276C124.769 6.91276 123.695 6.69784 122.58 6.26802C121.626 7.8933 121.149 9.59246 121.149 11.3655C121.149 13.8236 122.13 15.0526 124.091 15.0526C125.3 15.0526 126.435 14.6631 127.496 13.884ZM123.547 5.01883C124.232 5.24718 124.978 5.36135 125.783 5.36135C126.589 5.36135 126.992 5.13972 126.992 4.69646C126.992 4.17261 126.663 3.91068 126.005 3.91068C125.105 3.91068 124.286 4.28007 123.547 5.01883Z" fill="#1987B6"/>
<path d="M45.16 27.108C45.16 27.532 45.0893 27.9253 44.948 28.288C44.8093 28.648 44.612 28.96 44.356 29.224C44.1 29.488 43.792 29.6947 43.432 29.844C43.072 29.9907 42.672 30.064 42.232 30.064C41.7947 30.064 41.396 29.9907 41.036 29.844C40.676 29.6947 40.3667 29.488 40.108 29.224C39.852 28.96 39.6533 28.648 39.512 28.288C39.3707 27.9253 39.3 27.532 39.3 27.108C39.3 26.684 39.3707 26.292 39.512 25.932C39.6533 25.5693 39.852 25.256 40.108 24.992C40.3667 24.728 40.676 24.5227 41.036 24.376C41.396 24.2267 41.7947 24.152 42.232 24.152C42.5253 24.152 42.8013 24.1867 43.06 24.256C43.3187 24.3227 43.556 24.4187 43.772 24.544C43.988 24.6667 44.1813 24.8173 44.352 24.996C44.5253 25.172 44.672 25.3693 44.792 25.588C44.912 25.8067 45.0027 26.044 45.064 26.3C45.128 26.556 45.16 26.8253 45.16 27.108ZM44.06 27.108C44.06 26.7907 44.0173 26.5067 43.932 26.256C43.8467 26.0027 43.7253 25.788 43.568 25.612C43.4107 25.436 43.2187 25.3013 42.992 25.208C42.768 25.1147 42.5147 25.068 42.232 25.068C41.9493 25.068 41.6947 25.1147 41.468 25.208C41.244 25.3013 41.052 25.436 40.892 25.612C40.7347 25.788 40.6133 26.0027 40.528 26.256C40.4427 26.5067 40.4 26.7907 40.4 27.108C40.4 27.4253 40.4427 27.7107 40.528 27.964C40.6133 28.2147 40.7347 28.428 40.892 28.604C41.052 28.7773 41.244 28.9107 41.468 29.004C41.6947 29.0973 41.9493 29.144 42.232 29.144C42.5147 29.144 42.768 29.0973 42.992 29.004C43.2187 28.9107 43.4107 28.7773 43.568 28.604C43.7253 28.428 43.8467 28.2147 43.932 27.964C44.0173 27.7107 44.06 27.4253 44.06 27.108ZM46.8106 26.608C46.9386 26.3627 47.0906 26.1707 47.2666 26.032C47.4426 25.8907 47.6506 25.82 47.8906 25.82C48.08 25.82 48.232 25.8613 48.3466 25.944L48.2826 26.684C48.2693 26.732 48.2493 26.7667 48.2226 26.788C48.1986 26.8067 48.1653 26.816 48.1226 26.816C48.0826 26.816 48.0226 26.8093 47.9426 26.796C47.8653 26.7827 47.7893 26.776 47.7146 26.776C47.6053 26.776 47.508 26.792 47.4226 26.824C47.3373 26.856 47.26 26.9027 47.1906 26.964C47.124 27.0227 47.064 27.0947 47.0106 27.18C46.96 27.2653 46.912 27.3627 46.8666 27.472V30H45.8786V25.896H46.4586C46.56 25.896 46.6306 25.9147 46.6706 25.952C46.7106 25.9867 46.7373 26.0507 46.7506 26.144L46.8106 26.608ZM50.3161 27.848C50.4388 27.848 50.5455 27.832 50.6361 27.8C50.7268 27.7653 50.8015 27.7187 50.8601 27.66C50.9215 27.6013 50.9668 27.5307 50.9961 27.448C51.0281 27.3653 51.0441 27.2747 51.0441 27.176C51.0441 26.9733 50.9828 26.8133 50.8601 26.696C50.7401 26.576 50.5588 26.516 50.3161 26.516C50.0735 26.516 49.8908 26.576 49.7681 26.696C49.6481 26.8133 49.5881 26.9733 49.5881 27.176C49.5881 27.272 49.6028 27.3613 49.6321 27.444C49.6641 27.5267 49.7095 27.5987 49.7681 27.66C49.8295 27.7187 49.9055 27.7653 49.9961 27.8C50.0895 27.832 50.1961 27.848 50.3161 27.848ZM51.4321 30.184C51.4321 30.104 51.4081 30.0387 51.3601 29.988C51.3121 29.9373 51.2468 29.8987 51.1641 29.872C51.0815 29.8427 50.9841 29.8213 50.8721 29.808C50.7628 29.7947 50.6455 29.7853 50.5201 29.78C50.3975 29.772 50.2695 29.7653 50.1361 29.76C50.0055 29.7547 49.8775 29.744 49.7521 29.728C49.6428 29.7893 49.5535 29.8613 49.4841 29.944C49.4175 30.0267 49.3841 30.1227 49.3841 30.232C49.3841 30.304 49.4015 30.3707 49.4361 30.432C49.4735 30.496 49.5308 30.5507 49.6081 30.596C49.6881 30.6413 49.7908 30.676 49.9161 30.7C50.0415 30.7267 50.1948 30.74 50.3761 30.74C50.5601 30.74 50.7188 30.7253 50.8521 30.696C50.9855 30.6693 51.0948 30.6307 51.1801 30.58C51.2681 30.532 51.3321 30.4733 51.3721 30.404C51.4121 30.3373 51.4321 30.264 51.4321 30.184ZM52.4161 26.036V26.404C52.4161 26.5213 52.3455 26.5933 52.2041 26.62L51.8361 26.688C51.8921 26.8293 51.9201 26.984 51.9201 27.152C51.9201 27.3547 51.8788 27.5387 51.7961 27.704C51.7161 27.8667 51.6041 28.0053 51.4601 28.12C51.3161 28.2347 51.1455 28.324 50.9481 28.388C50.7535 28.4493 50.5428 28.48 50.3161 28.48C50.2361 28.48 50.1588 28.476 50.0841 28.468C50.0095 28.46 49.9361 28.4493 49.8641 28.436C49.7361 28.5133 49.6721 28.6 49.6721 28.696C49.6721 28.7787 49.7095 28.84 49.7841 28.88C49.8615 28.9173 49.9628 28.944 50.0881 28.96C50.2135 28.976 50.3561 28.9867 50.5161 28.992C50.6761 28.9947 50.8401 29.0027 51.0081 29.016C51.1761 29.0293 51.3401 29.0533 51.5001 29.088C51.6601 29.12 51.8028 29.172 51.9281 29.244C52.0535 29.316 52.1535 29.4147 52.2281 29.54C52.3055 29.6627 52.3441 29.8213 52.3441 30.016C52.3441 30.1973 52.2988 30.3733 52.2081 30.544C52.1201 30.7147 51.9908 30.8667 51.8201 31C51.6521 31.1333 51.4441 31.24 51.1961 31.32C50.9508 31.4027 50.6708 31.444 50.3561 31.444C50.0468 31.444 49.7775 31.4133 49.5481 31.352C49.3188 31.2933 49.1281 31.2133 48.9761 31.112C48.8241 31.0133 48.7108 30.8987 48.6361 30.768C48.5615 30.6373 48.5241 30.5013 48.5241 30.36C48.5241 30.168 48.5815 30.008 48.6961 29.88C48.8135 29.7493 48.9735 29.6453 49.1761 29.568C49.0668 29.512 48.9801 29.4373 48.9161 29.344C48.8521 29.2507 48.8201 29.128 48.8201 28.976C48.8201 28.9147 48.8308 28.852 48.8521 28.788C48.8761 28.7213 48.9095 28.656 48.9521 28.592C48.9975 28.528 49.0535 28.468 49.1201 28.412C49.1868 28.3533 49.2655 28.3013 49.3561 28.256C49.1481 28.144 48.9841 27.9947 48.8641 27.808C48.7468 27.6213 48.6881 27.4027 48.6881 27.152C48.6881 26.9493 48.7281 26.7667 48.8081 26.604C48.8908 26.4387 49.0041 26.2987 49.1481 26.184C49.2948 26.0667 49.4668 25.9773 49.6641 25.916C49.8641 25.8547 50.0815 25.824 50.3161 25.824C50.4921 25.824 50.6575 25.8427 50.8121 25.88C50.9668 25.9147 51.1081 25.9667 51.2361 26.036H52.4161ZM55.2107 28.248C54.9254 28.2613 54.6854 28.2867 54.4907 28.324C54.296 28.3587 54.14 28.404 54.0227 28.46C53.9054 28.516 53.8214 28.5813 53.7707 28.656C53.72 28.7307 53.6947 28.812 53.6947 28.9C53.6947 29.0733 53.7454 29.1973 53.8467 29.272C53.9507 29.3467 54.0854 29.384 54.2507 29.384C54.4534 29.384 54.628 29.348 54.7747 29.276C54.924 29.2013 55.0694 29.0893 55.2107 28.94V28.248ZM52.9467 26.468C53.4187 26.036 53.9867 25.82 54.6507 25.82C54.8907 25.82 55.1054 25.86 55.2947 25.94C55.484 26.0173 55.644 26.1267 55.7747 26.268C55.9054 26.4067 56.004 26.5733 56.0707 26.768C56.14 26.9627 56.1747 27.176 56.1747 27.408V30H55.7267C55.6334 30 55.5614 29.9867 55.5107 29.96C55.46 29.9307 55.42 29.8733 55.3907 29.788L55.3027 29.492C55.1987 29.5853 55.0974 29.668 54.9987 29.74C54.9 29.8093 54.7974 29.868 54.6907 29.916C54.584 29.964 54.4694 30 54.3467 30.024C54.2267 30.0507 54.0934 30.064 53.9467 30.064C53.7734 30.064 53.6134 30.0413 53.4667 29.996C53.32 29.948 53.1934 29.8773 53.0867 29.784C52.98 29.6907 52.8974 29.5747 52.8387 29.436C52.78 29.2973 52.7507 29.136 52.7507 28.952C52.7507 28.848 52.768 28.7453 52.8027 28.644C52.8374 28.54 52.8934 28.4413 52.9707 28.348C53.0507 28.2547 53.1534 28.1667 53.2787 28.084C53.404 28.0013 53.5574 27.9293 53.7387 27.868C53.9227 27.8067 54.136 27.7573 54.3787 27.72C54.6214 27.68 54.8987 27.656 55.2107 27.648V27.408C55.2107 27.1333 55.152 26.9307 55.0347 26.8C54.9174 26.6667 54.748 26.6 54.5267 26.6C54.3667 26.6 54.2334 26.6187 54.1267 26.656C54.0227 26.6933 53.9307 26.736 53.8507 26.784C53.7707 26.8293 53.6974 26.8707 53.6307 26.908C53.5667 26.9453 53.4947 26.964 53.4147 26.964C53.3454 26.964 53.2867 26.9467 53.2387 26.912C53.1907 26.8747 53.152 26.832 53.1227 26.784L52.9467 26.468ZM58.0292 26.4C58.1119 26.3173 58.1985 26.2413 58.2892 26.172C58.3825 26.1 58.4799 26.04 58.5812 25.992C58.6852 25.9413 58.7959 25.9027 58.9132 25.876C59.0305 25.8467 59.1585 25.832 59.2972 25.832C59.5212 25.832 59.7199 25.8707 59.8932 25.948C60.0665 26.0227 60.2105 26.1293 60.3252 26.268C60.4425 26.404 60.5305 26.568 60.5892 26.76C60.6505 26.9493 60.6812 27.1587 60.6812 27.388V30H59.6932V27.388C59.6932 27.1373 59.6359 26.944 59.5212 26.808C59.4065 26.6693 59.2319 26.6 58.9972 26.6C58.8265 26.6 58.6665 26.6387 58.5172 26.716C58.3679 26.7933 58.2265 26.8987 58.0932 27.032V30H57.1052V25.896H57.7092C57.8372 25.896 57.9212 25.956 57.9612 26.076L58.0292 26.4ZM65.4701 26.968C65.6728 26.968 65.8488 26.9427 65.9981 26.892C66.1501 26.8413 66.2741 26.772 66.3701 26.684C66.4688 26.5933 66.5421 26.4867 66.5901 26.364C66.6381 26.2413 66.6621 26.1067 66.6621 25.96C66.6621 25.6667 66.5648 25.4413 66.3701 25.284C66.1781 25.1267 65.8835 25.048 65.4861 25.048H64.7981V26.968H65.4701ZM68.2381 30H67.2661C67.0821 30 66.9488 29.928 66.8661 29.784L65.6501 27.932C65.6048 27.8627 65.5541 27.8133 65.4981 27.784C65.4448 27.7547 65.3648 27.74 65.2581 27.74H64.7981V30H63.7221V24.216H65.4861C65.8781 24.216 66.2141 24.2573 66.4941 24.34C66.7768 24.42 67.0075 24.5333 67.1861 24.68C67.3675 24.8267 67.5008 25.0027 67.5861 25.208C67.6715 25.4107 67.7141 25.6347 67.7141 25.88C67.7141 26.0747 67.6848 26.2587 67.6261 26.432C67.5701 26.6053 67.4875 26.7627 67.3781 26.904C67.2715 27.0453 67.1381 27.1693 66.9781 27.276C66.8208 27.3827 66.6408 27.4667 66.4381 27.528C66.5075 27.568 66.5715 27.616 66.6301 27.672C66.6888 27.7253 66.7421 27.7893 66.7901 27.864L68.2381 30ZM71.0851 27.476C71.0851 27.348 71.0665 27.228 71.0291 27.116C70.9945 27.0013 70.9411 26.9013 70.8691 26.816C70.7971 26.7307 70.7051 26.664 70.5931 26.616C70.4838 26.5653 70.3558 26.54 70.2091 26.54C69.9238 26.54 69.6985 26.6213 69.5331 26.784C69.3705 26.9467 69.2665 27.1773 69.2211 27.476H71.0851ZM69.2011 28.072C69.2171 28.2827 69.2545 28.4653 69.3131 28.62C69.3718 28.772 69.4491 28.8987 69.5451 29C69.6411 29.0987 69.7545 29.1733 69.8851 29.224C70.0185 29.272 70.1651 29.296 70.3251 29.296C70.4851 29.296 70.6225 29.2773 70.7371 29.24C70.8545 29.2027 70.9558 29.1613 71.0411 29.116C71.1291 29.0707 71.2051 29.0293 71.2691 28.992C71.3358 28.9547 71.3998 28.936 71.4611 28.936C71.5438 28.936 71.6051 28.9667 71.6451 29.028L71.9291 29.388C71.8198 29.516 71.6971 29.624 71.5611 29.712C71.4251 29.7973 71.2825 29.8667 71.1331 29.92C70.9865 29.9707 70.8358 30.0067 70.6811 30.028C70.5291 30.0493 70.3811 30.06 70.2371 30.06C69.9518 30.06 69.6865 30.0133 69.4411 29.92C69.1958 29.824 68.9825 29.684 68.8011 29.5C68.6198 29.3133 68.4771 29.084 68.3731 28.812C68.2691 28.5373 68.2171 28.22 68.2171 27.86C68.2171 27.58 68.2625 27.3173 68.3531 27.072C68.4438 26.824 68.5731 26.6093 68.7411 26.428C68.9118 26.244 69.1185 26.0987 69.3611 25.992C69.6065 25.8853 69.8825 25.832 70.1891 25.832C70.4478 25.832 70.6865 25.8733 70.9051 25.956C71.1238 26.0387 71.3118 26.16 71.4691 26.32C71.6265 26.4773 71.7491 26.672 71.8371 26.904C71.9278 27.1333 71.9731 27.396 71.9731 27.692C71.9731 27.8413 71.9571 27.9427 71.9251 27.996C71.8931 28.0467 71.8318 28.072 71.7411 28.072H69.2011ZM74.2146 27.848C74.3372 27.848 74.4439 27.832 74.5346 27.8C74.6252 27.7653 74.6999 27.7187 74.7586 27.66C74.8199 27.6013 74.8652 27.5307 74.8946 27.448C74.9266 27.3653 74.9426 27.2747 74.9426 27.176C74.9426 26.9733 74.8812 26.8133 74.7586 26.696C74.6386 26.576 74.4572 26.516 74.2146 26.516C73.9719 26.516 73.7892 26.576 73.6666 26.696C73.5466 26.8133 73.4866 26.9733 73.4866 27.176C73.4866 27.272 73.5012 27.3613 73.5306 27.444C73.5626 27.5267 73.6079 27.5987 73.6666 27.66C73.7279 27.7187 73.8039 27.7653 73.8946 27.8C73.9879 27.832 74.0946 27.848 74.2146 27.848ZM75.3306 30.184C75.3306 30.104 75.3066 30.0387 75.2586 29.988C75.2106 29.9373 75.1452 29.8987 75.0626 29.872C74.9799 29.8427 74.8826 29.8213 74.7706 29.808C74.6612 29.7947 74.5439 29.7853 74.4186 29.78C74.2959 29.772 74.1679 29.7653 74.0346 29.76C73.9039 29.7547 73.7759 29.744 73.6506 29.728C73.5412 29.7893 73.4519 29.8613 73.3826 29.944C73.3159 30.0267 73.2826 30.1227 73.2826 30.232C73.2826 30.304 73.2999 30.3707 73.3346 30.432C73.3719 30.496 73.4292 30.5507 73.5066 30.596C73.5866 30.6413 73.6892 30.676 73.8146 30.7C73.9399 30.7267 74.0932 30.74 74.2746 30.74C74.4586 30.74 74.6172 30.7253 74.7506 30.696C74.8839 30.6693 74.9932 30.6307 75.0786 30.58C75.1666 30.532 75.2306 30.4733 75.2706 30.404C75.3106 30.3373 75.3306 30.264 75.3306 30.184ZM76.3146 26.036V26.404C76.3146 26.5213 76.2439 26.5933 76.1026 26.62L75.7346 26.688C75.7906 26.8293 75.8186 26.984 75.8186 27.152C75.8186 27.3547 75.7772 27.5387 75.6946 27.704C75.6146 27.8667 75.5026 28.0053 75.3586 28.12C75.2146 28.2347 75.0439 28.324 74.8466 28.388C74.6519 28.4493 74.4412 28.48 74.2146 28.48C74.1346 28.48 74.0572 28.476 73.9826 28.468C73.9079 28.46 73.8346 28.4493 73.7626 28.436C73.6346 28.5133 73.5706 28.6 73.5706 28.696C73.5706 28.7787 73.6079 28.84 73.6826 28.88C73.7599 28.9173 73.8612 28.944 73.9866 28.96C74.1119 28.976 74.2546 28.9867 74.4146 28.992C74.5746 28.9947 74.7386 29.0027 74.9066 29.016C75.0746 29.0293 75.2386 29.0533 75.3986 29.088C75.5586 29.12 75.7012 29.172 75.8266 29.244C75.9519 29.316 76.0519 29.4147 76.1266 29.54C76.2039 29.6627 76.2426 29.8213 76.2426 30.016C76.2426 30.1973 76.1972 30.3733 76.1066 30.544C76.0186 30.7147 75.8892 30.8667 75.7186 31C75.5506 31.1333 75.3426 31.24 75.0946 31.32C74.8492 31.4027 74.5692 31.444 74.2546 31.444C73.9452 31.444 73.6759 31.4133 73.4466 31.352C73.2172 31.2933 73.0266 31.2133 72.8746 31.112C72.7226 31.0133 72.6092 30.8987 72.5346 30.768C72.4599 30.6373 72.4226 30.5013 72.4226 30.36C72.4226 30.168 72.4799 30.008 72.5946 29.88C72.7119 29.7493 72.8719 29.6453 73.0746 29.568C72.9652 29.512 72.8786 29.4373 72.8146 29.344C72.7506 29.2507 72.7186 29.128 72.7186 28.976C72.7186 28.9147 72.7292 28.852 72.7506 28.788C72.7746 28.7213 72.8079 28.656 72.8506 28.592C72.8959 28.528 72.9519 28.468 73.0186 28.412C73.0852 28.3533 73.1639 28.3013 73.2546 28.256C73.0466 28.144 72.8826 27.9947 72.7626 27.808C72.6452 27.6213 72.5866 27.4027 72.5866 27.152C72.5866 26.9493 72.6266 26.7667 72.7066 26.604C72.7892 26.4387 72.9026 26.2987 73.0466 26.184C73.1932 26.0667 73.3652 25.9773 73.5626 25.916C73.7626 25.8547 73.9799 25.824 74.2146 25.824C74.3906 25.824 74.5559 25.8427 74.7106 25.88C74.8652 25.9147 75.0066 25.9667 75.1346 26.036H76.3146ZM77.9651 25.896V30H76.9731V25.896H77.9651ZM78.1011 24.7C78.1011 24.7853 78.0838 24.8653 78.0491 24.94C78.0145 25.0147 77.9678 25.08 77.9091 25.136C77.8531 25.192 77.7865 25.2373 77.7091 25.272C77.6318 25.304 77.5491 25.32 77.4611 25.32C77.3758 25.32 77.2945 25.304 77.2171 25.272C77.1425 25.2373 77.0771 25.192 77.0211 25.136C76.9651 25.08 76.9198 25.0147 76.8851 24.94C76.8531 24.8653 76.8371 24.7853 76.8371 24.7C76.8371 24.612 76.8531 24.5293 76.8851 24.452C76.9198 24.3747 76.9651 24.308 77.0211 24.252C77.0771 24.196 77.1425 24.152 77.2171 24.12C77.2945 24.0853 77.3758 24.068 77.4611 24.068C77.5491 24.068 77.6318 24.0853 77.7091 24.12C77.7865 24.152 77.8531 24.196 77.9091 24.252C77.9678 24.308 78.0145 24.3747 78.0491 24.452C78.0838 24.5293 78.1011 24.612 78.1011 24.7ZM81.4764 26.696C81.4497 26.7387 81.4217 26.7693 81.3924 26.788C81.363 26.804 81.3257 26.812 81.2804 26.812C81.2324 26.812 81.1804 26.7987 81.1244 26.772C81.071 26.7453 81.0084 26.716 80.9364 26.684C80.8644 26.6493 80.7817 26.6187 80.6884 26.592C80.5977 26.5653 80.4897 26.552 80.3644 26.552C80.1697 26.552 80.0164 26.5933 79.9044 26.676C79.795 26.7587 79.7404 26.8667 79.7404 27C79.7404 27.088 79.7684 27.1627 79.8244 27.224C79.883 27.2827 79.959 27.3347 80.0524 27.38C80.1484 27.4253 80.2564 27.4667 80.3764 27.504C80.4964 27.5387 80.6177 27.5773 80.7404 27.62C80.8657 27.6627 80.9884 27.712 81.1084 27.768C81.2284 27.8213 81.335 27.8907 81.4284 27.976C81.5244 28.0587 81.6004 28.1587 81.6564 28.276C81.715 28.3933 81.7444 28.5347 81.7444 28.7C81.7444 28.8973 81.7084 29.08 81.6364 29.248C81.567 29.4133 81.463 29.5573 81.3244 29.68C81.1857 29.8 81.0137 29.8947 80.8084 29.964C80.6057 30.0307 80.371 30.064 80.1044 30.064C79.963 30.064 79.8244 30.0507 79.6884 30.024C79.555 30 79.4257 29.9653 79.3004 29.92C79.1777 29.8747 79.063 29.8213 78.9564 29.76C78.8524 29.6987 78.7604 29.632 78.6804 29.56L78.9084 29.184C78.9377 29.1387 78.9724 29.104 79.0124 29.08C79.0524 29.056 79.103 29.044 79.1644 29.044C79.2257 29.044 79.283 29.0613 79.3364 29.096C79.3924 29.1307 79.4564 29.168 79.5284 29.208C79.6004 29.248 79.6844 29.2853 79.7804 29.32C79.879 29.3547 80.003 29.372 80.1524 29.372C80.2697 29.372 80.3697 29.3587 80.4524 29.332C80.5377 29.3027 80.607 29.2653 80.6604 29.22C80.7164 29.1747 80.7564 29.1227 80.7804 29.064C80.807 29.0027 80.8204 28.94 80.8204 28.876C80.8204 28.78 80.791 28.7013 80.7324 28.64C80.6764 28.5787 80.6004 28.5253 80.5044 28.48C80.411 28.4347 80.303 28.3947 80.1804 28.36C80.0604 28.3227 79.9364 28.2827 79.8084 28.24C79.683 28.1973 79.559 28.148 79.4364 28.092C79.3164 28.0333 79.2084 27.96 79.1124 27.872C79.019 27.784 78.943 27.676 78.8844 27.548C78.8284 27.42 78.8004 27.2653 78.8004 27.084C78.8004 26.916 78.8337 26.756 78.9004 26.604C78.967 26.452 79.0644 26.32 79.1924 26.208C79.323 26.0933 79.4844 26.0027 79.6764 25.936C79.871 25.8667 80.095 25.832 80.3484 25.832C80.631 25.832 80.8884 25.8787 81.1204 25.972C81.3524 26.0653 81.5457 26.188 81.7004 26.34L81.4764 26.696ZM83.856 30.064C83.4987 30.064 83.224 29.964 83.032 29.764C82.8427 29.5613 82.748 29.2827 82.748 28.928V26.636H82.328C82.2747 26.636 82.2293 26.6187 82.192 26.584C82.1547 26.5493 82.136 26.4973 82.136 26.428V26.036L82.796 25.928L83.004 24.808C83.0173 24.7547 83.0427 24.7133 83.08 24.684C83.1173 24.6547 83.1653 24.64 83.224 24.64H83.736V25.932H84.832V26.636H83.736V28.86C83.736 28.988 83.7667 29.088 83.828 29.16C83.892 29.232 83.9787 29.268 84.088 29.268C84.1493 29.268 84.2 29.2613 84.24 29.248C84.2827 29.232 84.3187 29.216 84.348 29.2C84.38 29.184 84.408 29.1693 84.432 29.156C84.456 29.14 84.48 29.132 84.504 29.132C84.5333 29.132 84.5573 29.14 84.576 29.156C84.5947 29.1693 84.6147 29.1907 84.636 29.22L84.932 29.7C84.788 29.82 84.6227 29.9107 84.436 29.972C84.2493 30.0333 84.056 30.064 83.856 30.064ZM86.3966 26.608C86.5246 26.3627 86.6766 26.1707 86.8526 26.032C87.0286 25.8907 87.2366 25.82 87.4766 25.82C87.6659 25.82 87.8179 25.8613 87.9326 25.944L87.8686 26.684C87.8552 26.732 87.8352 26.7667 87.8086 26.788C87.7846 26.8067 87.7512 26.816 87.7086 26.816C87.6686 26.816 87.6086 26.8093 87.5286 26.796C87.4512 26.7827 87.3752 26.776 87.3006 26.776C87.1912 26.776 87.0939 26.792 87.0086 26.824C86.9232 26.856 86.8459 26.9027 86.7766 26.964C86.7099 27.0227 86.6499 27.0947 86.5966 27.18C86.5459 27.2653 86.4979 27.3627 86.4526 27.472V30H85.4646V25.896H86.0446C86.1459 25.896 86.2166 25.9147 86.2566 25.952C86.2966 25.9867 86.3232 26.0507 86.3366 26.144L86.3966 26.608ZM92.1769 25.896L89.9409 31.128C89.9116 31.1973 89.8729 31.2493 89.8249 31.284C89.7796 31.3213 89.7089 31.34 89.6129 31.34H88.8769L89.6449 29.692L87.9849 25.896H88.8529C88.9303 25.896 88.9903 25.9147 89.0329 25.952C89.0783 25.9893 89.1116 26.032 89.1329 26.08L90.0049 28.208C90.0343 28.28 90.0583 28.352 90.0769 28.424C90.0983 28.496 90.1183 28.5693 90.1369 28.644C90.1609 28.5693 90.1849 28.496 90.2089 28.424C90.2329 28.3493 90.2596 28.276 90.2889 28.204L91.1129 26.08C91.1343 26.0267 91.1689 25.9827 91.2169 25.948C91.2676 25.9133 91.3236 25.896 91.3849 25.896H92.1769Z" fill="#1987B6"/>
<path fill-rule="evenodd" clip-rule="evenodd" d="M17.1575 1.25343e-07C21.707 1.25343e-07 26.0702 1.79111 29.287 4.97924C32.5039 8.16737 34.3108 12.4913 34.3102 16.9998C34.3102 23.8757 30.1304 30.0746 23.7198 32.7057C17.3092 35.3368 9.93041 33.882 5.02431 29.0197C0.118217 24.1573 -1.34897 16.8451 1.30693 10.4928C3.96284 4.1405 10.2188 -0.000831886 17.1575 1.25343e-07ZM9.73537 6.86944C9.00889 6.70569 8.25234 6.72764 7.53677 6.93322C7.56065 6.9579 7.57674 6.97436 7.58686 6.98465L7.60113 6.99905L7.80874 7.02991C9.04999 7.141 10.2379 7.58243 11.2468 8.30751C11.6534 8.58488 12.0298 8.90343 12.3699 9.258C12.6834 9.60364 13.0239 10.0295 13.1277 10.4389C13.2315 10.8483 13.4641 11.1816 13.5741 11.5643C13.9353 12.8234 14.0848 14.6503 13.2544 15.7654C12.9658 16.1562 12.4696 16.5492 12.8537 17.1664C12.8703 17.1973 12.808 17.2651 12.808 17.3186C12.7764 17.5041 12.7673 17.6927 12.781 17.8803C12.8682 18.4296 12.9741 18.9768 13.0758 19.5262C13.0841 19.5632 13.1049 19.5982 13.1049 19.6352C13.6945 21.2811 14.3796 22.8488 15.8516 23.9556C16.4744 24.4247 16.4972 24.832 16.082 25.4719C15.6523 26.1528 15.1893 26.8215 14.7741 27.5127H15.3388L15.3845 27.4284C15.6917 26.9182 16.0156 26.4285 16.3374 25.9121C16.6592 25.3957 16.9644 24.8732 17.3007 24.3671C17.3943 24.2311 17.5332 24.132 17.6931 24.0873L17.7782 24.0708C17.8766 24.052 17.9777 24.0868 18.0432 24.1619C18.1088 24.2371 18.1288 24.3412 18.0959 24.435C18.0004 24.7086 17.9194 24.9966 17.8467 25.2908C17.6827 25.9492 17.5561 26.6301 17.3962 27.237C17.6121 27.1938 17.7139 27.2062 17.9381 27.1609C18.0253 26.6425 18.2246 25.9142 18.3782 25.3402C18.4509 25.0624 18.592 24.3321 18.81 24.0934C19.028 23.8548 19.709 23.6573 20.2488 23.3981C20.3573 23.3422 20.4734 23.302 20.5934 23.2787C20.705 23.2681 20.8175 23.2729 20.9277 23.2931C21.1752 23.3308 21.4196 23.3872 21.6585 23.4618C22.379 23.7645 22.9834 24.287 23.3837 24.9534C23.8072 25.6426 24.565 26.1775 25.1878 26.7001C25.4903 26.9554 25.8975 27.0525 26.284 26.9614H26.2965C26.666 27.2062 27.374 27.4078 27.7041 27.2864C28.0342 27.165 28.5221 26.9202 28.5221 26.5273C28.5915 26.4954 28.6564 26.4546 28.7151 26.4059C28.863 26.2704 28.8793 26.0445 28.7525 25.8895C28.3269 25.1879 27.3615 24.8732 26.7138 24.4103C25.8031 23.7629 24.9034 23.0963 24.0148 22.4105C23.8532 22.2984 23.7085 22.164 23.5851 22.0114C23.2986 21.6267 23.2944 21.0506 23.1387 20.598C22.963 20.0801 22.7112 19.5906 22.3913 19.1456C22.1449 18.8152 21.9169 18.4718 21.7083 18.1169C21.1228 17.1108 20.5415 16.1048 19.6176 15.3601C19.1131 14.9527 19.1547 14.4445 19.1692 13.8644C19.1892 13.1506 19.0103 12.4452 18.6523 11.8256C17.8654 10.4657 16.4017 9.88549 14.8862 9.76822C14.6222 9.75468 14.3658 9.67543 14.1409 9.5378C13.8276 9.30085 13.5345 9.03868 13.2648 8.75396C12.2987 7.79845 11.072 7.14345 9.73537 6.86944ZM73.4767 0.479371C73.8423 0.467922 74.2048 0.550992 74.5301 0.720799C74.7796 0.868406 74.9846 1.08258 75.1229 1.34012C75.2714 1.6311 75.3639 1.94816 75.3956 2.27434C75.4393 2.66667 75.4573 3.06153 75.4493 3.45629C75.4338 4.06679 75.3164 4.67018 75.1023 5.24077C74.8648 5.88237 74.5732 6.5019 74.2306 7.09242C73.867 7.71812 73.4677 8.32167 73.0347 8.89999C72.5989 9.49411 72.1548 10.0567 71.7169 10.5795L71.6198 10.695L71.9916 10.9637L72.0722 10.8629C72.3599 10.4988 72.6733 10.1563 73.0099 9.83841C73.2135 9.62897 73.4869 9.50464 73.7762 9.48991C74.0912 9.48847 74.401 9.571 74.6747 9.72924C74.9377 9.88984 75.1649 10.1043 75.3419 10.3591C75.5292 10.63 75.669 10.9319 75.755 11.2513C75.8502 11.5926 75.8954 11.9463 75.8893 12.301C75.8851 12.6117 75.8686 12.9119 75.8397 13.1932C75.8116 13.4667 75.7633 13.7375 75.6951 14.0036C75.6265 14.2725 75.536 14.5351 75.4245 14.7887C75.2965 15.0696 75.1459 15.3392 74.9742 15.5949L74.652 16.0799L75.1539 15.7923C75.3811 15.6642 75.598 15.5466 75.8294 15.4228C76.0607 15.2989 76.292 15.1645 76.5316 15.0155C76.7712 14.8664 77.0108 14.6985 77.2463 14.5179C77.4621 14.3531 77.669 14.1765 77.866 13.9889L77.8969 13.9595L77.9362 13.7873C77.9527 13.7223 77.9692 13.6509 77.9878 13.5774C78.1241 13.0211 78.2605 12.4773 78.4237 11.9168C78.5868 11.3563 78.7232 10.8398 78.8368 10.3863C78.8751 10.2513 78.9529 10.1312 79.0598 10.042C79.1831 9.93572 79.3226 9.85062 79.4729 9.79012C79.627 9.72479 79.7877 9.67691 79.9521 9.64737C80.1006 9.61935 80.2514 9.60529 80.4024 9.60538C80.6895 9.60958 80.7928 9.67676 80.8279 9.71665C80.8972 9.79764 80.9314 9.90359 80.9229 10.0106C80.9099 10.2003 80.8773 10.3882 80.8259 10.5711C80.7598 10.8314 80.6895 11.1211 80.5842 11.4423C80.4789 11.7635 80.3797 12.112 80.2723 12.492C80.1649 12.872 80.0595 13.2436 79.9583 13.6257C79.8571 14.0078 79.7745 14.3815 79.7063 14.7363C79.6431 15.0637 79.6065 15.3958 79.5969 15.7293C79.5847 15.9729 79.6155 16.2168 79.6878 16.4494C79.7577 16.6668 79.9629 16.809 80.1876 16.7958C80.4726 16.7881 80.7509 16.7057 80.9952 16.5564C81.2911 16.39 81.5741 16.2013 81.8421 15.9917C82.1209 15.7734 82.3998 15.5445 82.6683 15.3115L82.8501 15.154V15.0995C82.8769 14.8874 82.9058 14.6691 82.9368 14.4424C82.9967 14.0498 83.0649 13.6341 83.1434 13.21C83.2219 12.7859 83.3024 12.4018 83.3871 12.0155C83.4718 11.6292 83.5585 11.2786 83.6412 10.9658C83.7089 10.7049 83.7917 10.4484 83.889 10.1974C83.9275 10.0925 83.9752 9.99132 84.0316 9.89509C84.0664 9.83704 84.112 9.78641 84.1658 9.74604C84.2213 9.70986 84.2842 9.6869 84.3496 9.67886C84.4599 9.66448 84.5711 9.65957 84.6822 9.66416C84.7991 9.66298 84.9159 9.67212 85.0313 9.69145C85.0749 9.69441 85.1153 9.71571 85.1428 9.75024C85.1759 9.80747 85.1931 9.87279 85.1924 9.93918V10.3863L85.18 11.2261V12.3346H85.496L85.5353 12.259C85.6619 12.0057 85.8045 11.7258 85.9628 11.4192C86.1152 11.1231 86.2943 10.842 86.4978 10.5795C86.6888 10.3361 86.9151 10.1237 87.1691 9.94968C87.413 9.78411 87.7022 9.70108 87.9953 9.71245C88.0957 9.71235 88.1952 9.73158 88.2886 9.76913C88.3786 9.80323 88.4613 9.85454 88.5323 9.92029C88.6019 9.9845 88.6568 10.0633 88.6934 10.1512C88.734 10.2509 88.753 10.3583 88.7492 10.4661C88.7419 10.607 88.7253 10.7473 88.6996 10.886V10.9091C88.6666 11.0917 88.6315 11.2723 88.5922 11.4822C88.553 11.6922 88.5137 11.8958 88.4807 12.091C88.4492 12.2608 88.4305 12.4327 88.4249 12.6054C88.4174 12.8075 88.4382 13.0097 88.4869 13.2058C88.5224 13.3564 88.5855 13.4988 88.6728 13.6257C88.7488 13.7283 88.849 13.8098 88.964 13.8629C89.0688 13.9099 89.1821 13.9342 89.2966 13.9343C89.6097 13.935 89.92 13.8729 90.2095 13.7517C90.2488 13.737 90.286 13.7181 90.3231 13.7013L90.4347 13.6509L90.4574 13.6005C90.5256 13.4367 90.5875 13.3045 90.6516 13.1806C90.8499 12.8063 91.0867 12.4545 91.358 12.1309C91.912 11.4684 92.6178 10.9544 93.4132 10.6341C93.5776 10.5681 93.7459 10.5127 93.9172 10.4682C94.4316 10.3448 94.8144 9.90623 94.8735 9.37235C94.9169 8.8643 94.983 8.35625 95.0697 7.8566C95.1978 7.11167 95.3709 6.37549 95.5882 5.65225C95.7876 4.99219 96.0347 4.34802 96.3276 3.72501C96.5744 3.19332 96.8756 2.68949 97.2261 2.22186C97.5135 1.83933 97.8627 1.50922 98.2589 1.24565C98.5764 1.03068 98.9494 0.916 99.3309 0.916042C99.5658 0.911942 99.7956 0.985631 99.9857 1.12598C100.174 1.27756 100.326 1.47161 100.428 1.69281C100.552 1.9582 100.635 2.24146 100.673 2.53257C100.724 2.86801 100.746 3.20726 100.74 3.54657C100.735 3.7565 100.723 3.97904 100.702 4.20787C100.615 5.03935 100.455 5.86132 100.225 6.66415C100.004 7.43316 99.7432 8.18996 99.4445 8.93148C99.145 9.66626 98.829 10.3926 98.4716 11.119C98.1143 11.8454 97.7714 12.6096 97.4389 13.3927C97.3986 13.5003 97.3648 13.6104 97.3377 13.7223C97.3046 13.8524 97.2716 13.9868 97.2406 14.1421C97.2096 14.2975 97.1827 14.4507 97.1621 14.5998C97.1416 14.7529 97.1299 14.9072 97.127 15.0617C97.1245 15.2398 97.1328 15.4179 97.1518 15.5949C97.1688 15.7555 97.2049 15.9134 97.2592 16.0652C97.3062 16.2024 97.3848 16.3262 97.4884 16.4263C97.5969 16.5264 97.7385 16.5811 97.885 16.5795C98.0303 16.5804 98.1748 16.557 98.3126 16.5102C98.4709 16.4583 98.6249 16.3937 98.7732 16.3171C98.926 16.2394 99.0954 16.1429 99.2545 16.0421C99.4135 15.9413 99.5705 15.8363 99.7213 15.7314C99.9753 15.5508 100.151 15.5109 100.308 15.597C100.436 15.6808 100.538 15.8013 100.599 15.9434C100.659 16.0625 100.701 16.1898 100.725 16.3213C100.738 16.4159 100.739 16.512 100.727 16.6068C100.665 17.075 100.184 17.3563 99.7585 17.604L99.5788 17.709C99.397 17.8203 99.2152 17.9273 99.019 18.0302C98.8228 18.1331 98.6307 18.2275 98.4448 18.3052C98.2672 18.3807 98.0851 18.4445 97.8995 18.4963C97.7484 18.5404 97.592 18.563 97.4347 18.5634C97.3155 18.5549 97.1972 18.5353 97.0815 18.5047C96.901 18.4564 96.7284 18.3814 96.5693 18.2821C96.3607 18.1495 96.1728 17.986 96.0116 17.7972C95.8035 17.5484 95.6405 17.2641 95.5303 16.9574L95.456 16.7664L95.3093 16.907C95.0799 17.1303 94.8385 17.3405 94.5864 17.5368C94.3407 17.727 94.0795 17.8956 93.8056 18.0407C93.546 18.1788 93.2742 18.292 92.9939 18.3787C92.7328 18.4592 92.4611 18.4981 92.1883 18.4942C91.8504 18.4977 91.5179 18.4085 91.2258 18.2359C90.9545 18.0673 90.7238 17.8392 90.5503 17.5683C90.3652 17.2759 90.2303 16.9536 90.1517 16.6152C90.0822 16.3206 90.0427 16.0195 90.034 15.7167V15.5298L89.7964 15.6096C89.7627 15.623 89.7282 15.6342 89.6932 15.6432C89.4594 15.7144 89.2163 15.7484 88.9723 15.744C88.6084 15.755 88.2492 15.6572 87.9395 15.4627C87.6786 15.2816 87.4658 15.0378 87.3199 14.7531C87.1589 14.4359 87.0447 14.0963 86.9811 13.7454C86.9088 13.3717 86.851 12.9812 86.8076 12.5865L86.7932 12.4647H86.4296L84.6719 17.2051C84.5851 17.4403 84.5004 17.6376 84.4261 17.7909C84.3659 17.9181 84.2925 18.0385 84.2071 18.1499C84.1519 18.2213 84.0812 18.2787 84.0006 18.3178C83.9211 18.3499 83.836 18.3649 83.7506 18.3619C83.5637 18.3693 83.3791 18.3179 83.2219 18.2149C83.0891 18.1151 82.985 17.981 82.9203 17.8266C82.842 17.6387 82.7925 17.4397 82.7737 17.2366C82.7592 17.1631 82.7592 17.096 82.7592 17.0267L82.7427 16.7454L82.5361 16.8881C82.4741 16.9322 82.4122 16.9784 82.3461 17.0225C82.0086 17.2586 81.6544 17.4691 81.2865 17.6523C80.9147 17.8377 80.5294 17.9935 80.1339 18.1184C79.7816 18.2338 79.4135 18.2919 79.0433 18.2905C78.7864 18.2927 78.5313 18.2457 78.2915 18.152C78.1079 18.0772 77.9454 17.9575 77.8185 17.8035C77.6934 17.6447 77.6064 17.4586 77.5644 17.2597C77.5106 17.0173 77.4863 16.7691 77.4921 16.5207C77.4942 16.4347 77.5045 16.3444 77.5045 16.252L77.521 15.9833L77.2959 16.124C77.0299 16.2929 76.754 16.445 76.4697 16.5795C76.1145 16.7444 75.7487 16.8846 75.3749 16.9994C75.2262 17.0456 75.0672 17.0792 74.8999 17.1149C74.624 17.1612 74.3543 17.2401 74.0964 17.35C73.7082 17.5469 73.3047 17.7112 72.8901 17.8412C72.3607 17.9865 71.8049 18.0016 71.2687 17.8853C71.1303 17.858 70.9919 17.8349 70.8556 17.8119C70.411 17.7534 69.9753 17.6392 69.5584 17.4718L69.3643 17.392C69.1866 17.308 68.9181 17.2093 68.6744 17.0981L68.6021 17.0645L68.5381 17.1107C68.2828 17.2925 68.0157 17.4567 67.7387 17.6019C67.4615 17.7457 67.1718 17.8631 66.8732 17.9525C66.571 18.0397 66.2579 18.0815 65.9438 18.0764C65.6649 18.0701 65.4315 17.8433 65.2249 17.3983C65.0101 16.9196 64.911 16.2037 64.9254 15.2737C64.9343 14.8734 64.9646 14.474 65.0163 14.0771C65.0721 13.6551 65.1382 13.1995 65.2229 12.6852L65.2477 12.5256H64.8594L62.327 17.4361C62.2483 17.6213 62.1203 17.7806 61.9573 17.8958C61.815 17.9769 61.6534 18.0161 61.4905 18.0092C61.3037 18.0155 61.1194 17.9643 60.9617 17.8622C60.8283 17.7622 60.7241 17.6272 60.6601 17.4718C60.5813 17.2841 60.5319 17.085 60.5135 16.8818C60.5145 16.87 60.5145 16.858 60.5135 16.8461L60.4908 16.5837L60.2656 16.7265C60.026 16.865 59.7658 17.0099 59.4931 17.1464C59.2242 17.2814 58.9484 17.402 58.6669 17.5074C58.4044 17.6079 58.1352 17.6893 57.8614 17.751C57.6238 17.8078 57.3804 17.836 57.1364 17.835C56.9506 17.8371 56.7673 17.7916 56.6034 17.7027C56.4532 17.6116 56.3243 17.4884 56.2255 17.3416C56.1064 17.1644 56.0132 16.9707 55.9487 16.7664C55.8631 16.5159 55.7941 16.2599 55.7421 16.0001L55.6843 15.7062L55.5025 15.9413C55.2863 16.2183 55.0516 16.4799 54.8002 16.7244C54.5701 16.9506 54.3213 17.1564 54.0567 17.3395C53.8229 17.503 53.5704 17.6369 53.3048 17.7384C53.0773 17.827 52.8358 17.8725 52.5922 17.8727C52.4134 17.8704 52.2364 17.8356 52.0696 17.7699C51.9085 17.7011 51.7666 17.5929 51.6565 17.455C51.5213 17.2782 51.4229 17.0754 51.3673 16.8587C51.2888 16.5484 51.2554 16.2279 51.2682 15.9077C51.2933 15.2995 51.3624 14.6939 51.4748 14.096C51.5429 13.6824 51.6235 13.2331 51.7102 12.7544L51.7681 12.4353L49.8347 13.7244L49.8492 13.8146C49.8822 14.0165 49.8974 14.2209 49.8946 14.4256C49.8924 14.8646 49.8105 15.2994 49.653 15.7083C49.5056 16.091 49.2962 16.4458 49.0333 16.758C48.7641 17.07 48.4525 17.3415 48.1079 17.5641C47.7507 17.7978 47.3681 17.9887 46.9678 18.1331C46.5533 18.2832 46.126 18.3935 45.6913 18.4627C45.2481 18.5346 44.7995 18.5669 44.3508 18.5592C43.7301 18.5502 43.1132 18.4613 42.5145 18.2947C41.9496 18.141 41.414 17.8919 40.9302 17.5578C40.4772 17.2419 40.099 16.8274 39.8231 16.3444C39.5397 15.8275 39.4011 15.2415 39.4224 14.6502C39.4221 14.3468 39.4811 14.0464 39.5959 13.7664C39.6962 13.5334 39.8361 13.3202 40.009 13.1365C40.1585 12.9762 40.3375 12.8471 40.5357 12.7565C40.7032 12.6723 40.888 12.6298 41.0748 12.6327C41.2353 12.63 41.3914 12.6859 41.5148 12.7901C41.6448 12.9108 41.7113 13.0865 41.6945 13.2646C41.6934 13.3622 41.6816 13.4594 41.6594 13.5543C41.6367 13.6572 41.616 13.758 41.5912 13.8671C41.5664 13.9763 41.5437 14.1002 41.521 14.2408C41.499 14.3853 41.4873 14.5313 41.4859 14.6775C41.4698 14.9868 41.5415 15.2943 41.6924 15.5634C41.8429 15.8179 42.0494 16.0334 42.2956 16.1932C42.5685 16.3678 42.8679 16.4955 43.1817 16.5711C43.5267 16.6565 43.88 16.7023 44.2351 16.7076C44.6684 16.7119 45.1008 16.6661 45.524 16.5711C45.9292 16.4823 46.3191 16.3323 46.6807 16.1261C47.0022 15.9423 47.2834 15.6937 47.5069 15.3955C47.7162 15.108 47.8299 14.7601 47.8312 14.4025C47.8402 14.0727 47.7494 13.748 47.5709 13.4724C47.3691 13.1733 47.1208 12.9095 46.8356 12.6915C46.5008 12.4317 46.1457 12.2 45.7739 11.9987C45.3732 11.7782 44.9663 11.5599 44.547 11.3311C44.1277 11.1022 43.7125 10.8629 43.318 10.6194C42.9316 10.3817 42.5691 10.1061 42.2357 9.79642C41.9275 9.50826 41.6697 9.16892 41.4735 8.79292C41.2772 8.40384 41.1819 7.97027 41.1967 7.53329C41.2066 7.08332 41.3197 6.64191 41.5272 6.24427C41.7594 5.79902 42.0869 5.41235 42.4856 5.1127C42.9562 4.76068 43.4841 4.49561 44.0451 4.32964C44.75 4.12281 45.4827 4.0307 46.2159 4.05672C46.7404 4.06578 47.2605 4.15495 47.7589 4.32124C48.2402 4.48045 48.6929 4.71797 49.0994 5.02453C49.4806 5.31476 49.8008 5.6795 50.0413 6.09731C50.2791 6.51523 50.3985 6.99189 50.3862 7.47451C50.3794 7.78524 50.3236 8.09285 50.221 8.38564C50.1008 8.7226 49.9368 9.04173 49.7335 9.33456C49.548 9.62576 49.3028 9.87281 49.0147 10.0588C48.8069 10.1971 48.5667 10.2768 48.3186 10.2898C48.1593 10.2962 48.004 10.2381 47.8869 10.1281C47.7721 10.0066 47.7149 9.84036 47.73 9.67256C47.7372 9.50498 47.7714 9.33974 47.8312 9.1834C47.9154 8.96165 48.0242 8.75035 48.1555 8.55359C48.2764 8.36919 48.3775 8.17211 48.457 7.96576C48.5189 7.7991 48.5531 7.62316 48.5582 7.44512C48.5665 7.21677 48.5028 6.9917 48.3765 6.80271C48.2356 6.6043 48.0519 6.44128 47.8394 6.32615C47.5738 6.18195 47.2883 6.07933 46.9926 6.02174C46.6299 5.9489 46.2613 5.91025 45.8916 5.90627C45.5024 5.89355 45.1134 5.93882 44.737 6.04063C44.4426 6.11934 44.1633 6.24779 43.9108 6.42062C43.714 6.55448 43.5495 6.73172 43.4295 6.93917C43.3298 7.11057 43.2744 7.30485 43.2684 7.5039C43.2557 7.8062 43.3397 8.10455 43.508 8.35415C43.7124 8.63675 43.9607 8.88352 44.2434 9.08473C44.5795 9.33032 44.9338 9.5493 45.303 9.73974L46.5299 10.3884C46.9554 10.611 47.3685 10.8503 47.7692 11.1043C48.159 11.3503 48.5207 11.6397 48.8474 11.9672C49.0086 12.1271 49.1545 12.3021 49.2832 12.4899L49.372 12.6159L52.6418 9.62637H52.6666L52.7161 9.56969C52.8076 9.45938 52.9157 9.36444 53.0363 9.28837C53.1735 9.2043 53.3305 9.15934 53.4907 9.15821C53.7104 9.15793 53.9282 9.19922 54.1331 9.27997C54.2178 9.32616 54.2673 9.37025 54.2673 9.41643C54.2074 9.74394 54.1413 10.1008 54.0711 10.506C54.0009 10.9112 53.9224 11.3185 53.8542 11.73C53.7861 12.1414 53.7158 12.5319 53.6477 12.9308C53.5795 13.3297 53.5196 13.674 53.4659 13.9805C53.4122 14.287 53.3688 14.5347 53.3379 14.7216C53.3009 14.9485 53.2927 15.0002 53.2909 15.0199L53.2904 15.0323C53.2883 15.1505 53.298 15.2687 53.3193 15.385C53.3402 15.4943 53.3757 15.6002 53.4246 15.6999C53.4747 15.7963 53.5452 15.8802 53.6312 15.9455C53.7232 16.0149 53.8347 16.0524 53.9493 16.0526C54.1154 16.0525 54.2793 16.0137 54.4285 15.9392C54.5933 15.8541 54.7433 15.742 54.8725 15.6075C55.0185 15.4515 55.1422 15.2756 55.2402 15.0848C55.3516 14.8623 55.4335 14.6258 55.4839 14.3815L56.4713 9.63897C56.494 9.5361 56.5952 9.44163 56.7728 9.36185C56.9895 9.26614 57.2246 9.22164 57.4606 9.23169C57.695 9.22322 57.9275 9.27828 58.134 9.39124C58.322 9.50881 58.3406 9.62847 58.3406 9.70615C58.3334 9.93124 58.312 10.1556 58.2765 10.378C58.2373 10.6593 58.1856 10.9805 58.1195 11.3248C58.0534 11.6691 57.9874 12.0239 57.913 12.3913C57.8386 12.7586 57.7705 13.0945 57.7064 13.42C57.6424 13.7454 57.5908 14.0204 57.5495 14.2597C57.5163 14.4315 57.4949 14.6055 57.4854 14.7803V15.2695C57.4872 15.4111 57.5052 15.552 57.5391 15.6894C57.5679 15.8111 57.6294 15.9223 57.7168 16.0106C57.8202 16.1 57.9529 16.1465 58.0886 16.1407C58.2724 16.1369 58.4545 16.1029 58.6277 16.04C58.8473 15.9639 59.0612 15.872 59.268 15.765C59.4931 15.6495 59.7245 15.5193 59.9537 15.3766C60.1334 15.2653 60.3152 15.1414 60.5094 14.9966L60.5589 14.9609L60.5796 14.751C60.6354 14.2135 60.7056 13.6677 60.7861 13.1113C60.8667 12.555 60.9617 12.0218 61.0609 11.5053C61.16 10.9889 61.2571 10.5459 61.3459 10.1869C61.4053 9.94004 61.5321 9.71521 61.7115 9.5382C61.9008 9.36375 62.1529 9.27706 62.4076 9.29887C62.6277 9.27539 62.8434 9.37302 62.9735 9.55499C63.0954 9.78602 63.1512 10.0471 63.1346 10.3087C63.13 10.4302 63.119 10.5515 63.1016 10.6719C63.0809 10.8293 63.0561 10.9994 63.0252 11.1904C62.9942 11.3815 62.9611 11.5767 62.9281 11.7782C62.895 11.9798 62.8641 12.1666 62.8331 12.3388C62.8021 12.5109 62.7773 12.66 62.7566 12.788C62.7396 12.8796 62.7279 12.9722 62.7215 13.0652V13.2058H63.1243L63.1636 13.1344C63.2028 13.0652 63.2627 12.9539 63.3453 12.8027L63.6304 12.2779C63.7378 12.068 63.8514 11.858 63.9753 11.6481C64.0992 11.4381 64.2149 11.2177 64.3223 11.0183C64.4297 10.8188 64.5185 10.6404 64.6156 10.4871C64.7127 10.3339 64.7767 10.2205 64.8222 10.147C64.9648 9.88084 65.1799 9.66215 65.4418 9.51721C65.6872 9.40333 65.9551 9.34872 66.2247 9.35765C66.4763 9.35427 66.7113 9.48486 66.8443 9.70195C67.0211 10.0074 67.1018 10.3605 67.0757 10.7139C67.0685 10.8219 67.0533 10.9293 67.0302 11.0351C67.0013 11.1925 66.9641 11.3899 66.9166 11.6124C66.8691 11.8349 66.8195 12.0784 66.7617 12.3493C66.7039 12.6201 66.6522 12.8951 66.6047 13.1764C66.5572 13.4577 66.5159 13.7412 66.4849 14.0162C66.4533 14.2726 66.4347 14.5304 66.4292 14.7887C66.415 15.1302 66.4612 15.4715 66.5655 15.7965C66.6279 16.0663 66.8608 16.26 67.1335 16.2688C67.2636 16.2656 67.3917 16.2349 67.5094 16.1785C67.6518 16.1138 67.7898 16.0394 67.9225 15.956C67.9969 15.9077 68.0774 15.8531 68.1683 15.7881L68.2179 15.7503V15.6873C68.2344 15.5046 68.2509 15.3178 68.2716 15.1225C68.3294 14.5788 68.4079 13.9196 68.505 13.1848C68.6021 12.45 68.7322 11.6145 68.8933 10.6992C69.0007 10.0966 69.135 9.40804 69.294 8.66276C69.4531 7.91748 69.641 7.1512 69.8497 6.39333C70.0583 5.63545 70.2958 4.88597 70.554 4.16588C70.7866 3.50752 71.0712 2.86933 71.405 2.25755C71.6659 1.76824 72.0004 1.3234 72.3965 0.939136C72.6818 0.645594 73.0707 0.480076 73.4767 0.479371ZM94.6752 11.4444L94.6298 11.4927C94.2138 11.6838 93.8331 11.9458 93.5041 12.2674C93.1837 12.5891 92.9059 12.9518 92.6778 13.3465C92.4617 13.7161 92.2884 14.1099 92.1615 14.52C92.049 14.8711 91.9857 15.2364 91.9735 15.6054C91.9713 15.7414 91.9838 15.8773 92.0107 16.0106C92.0397 16.153 92.0982 16.2875 92.1821 16.4053C92.2759 16.5325 92.4004 16.6331 92.5436 16.6971C92.7269 16.7767 92.9247 16.8161 93.124 16.8126H93.1364C93.268 16.8121 93.3976 16.7797 93.5144 16.7181C93.6379 16.6555 93.7531 16.5772 93.8572 16.485C93.966 16.3855 94.0668 16.2774 94.1588 16.1617C94.253 16.0442 94.3399 15.9208 94.4191 15.7923C94.6106 15.4777 94.7764 15.1477 94.9148 14.8055L94.9189 14.7783V14.7363C94.8966 14.6052 94.8842 14.4725 94.8818 14.3395C94.8632 14.1547 94.8632 13.9427 94.8632 13.7097V11.7908C94.8549 11.583 94.8528 11.5137 94.7599 11.4759L94.6752 11.4444ZM72.7806 11.3185C72.5406 11.3155 72.3024 11.3619 72.0804 11.4549C71.8361 11.5562 71.6142 11.7061 71.4277 11.8958C71.2134 12.1189 71.0356 12.3755 70.901 12.6558C70.7359 13.0054 70.6211 13.3773 70.5602 13.7601C70.5003 14.0918 70.4466 14.413 70.4053 14.6964C70.364 14.9798 70.3268 15.2023 70.2999 15.4522C70.2731 15.702 70.2462 15.9455 70.2256 16.1554C70.2111 16.2961 70.3247 16.3444 70.775 16.4704C70.9981 16.5333 71.2584 16.6089 71.3183 16.6089C71.4639 16.6373 71.6119 16.6514 71.7603 16.6509C72.1241 16.659 72.4826 16.5606 72.793 16.3675C73.1774 16.0997 73.4698 15.7165 73.6296 15.2716C73.8415 14.6833 73.9802 14.0705 74.0427 13.4472L74.042 13.4492C74.0632 13.2754 74.0774 13.0944 74.0852 12.9132L74.0922 12.6411C74.0945 12.4802 74.0786 12.3196 74.0447 12.1624C74.0094 12.0079 73.9386 11.864 73.8382 11.7425C73.726 11.6094 73.5844 11.5051 73.4251 11.4381C73.2195 11.3576 73.0009 11.317 72.7806 11.3185ZM98.8868 2.80548H98.8765C98.6018 2.82614 98.3573 2.98974 98.23 3.23796C98.0363 3.54803 97.8836 3.88259 97.7756 4.23306C97.6363 4.66363 97.5204 5.10166 97.4285 5.54518C97.3273 6.02174 97.2447 6.4794 97.1745 6.92657C97.1042 7.37374 97.0505 7.77052 97.0072 8.12742C96.9638 8.48431 96.9349 8.73833 96.9204 8.88739C96.8915 9.1939 96.8647 9.48991 96.8461 9.77543C96.8275 10.0609 96.813 10.3192 96.8027 10.5564C96.7924 10.7936 96.782 10.9994 96.782 11.1736L96.7651 12.3312L97.0361 11.7153V11.7237C97.3976 10.9217 97.728 10.1071 98.0461 9.31146C98.1721 8.97766 98.3023 8.61657 98.4365 8.23238C98.5708 7.8482 98.6906 7.47241 98.8021 7.09242C98.9137 6.71243 99.0128 6.33244 99.0954 5.96505C99.1748 5.61394 99.2348 5.25859 99.2751 4.90067C99.3206 4.46189 99.3474 4.1092 99.3474 3.85098C99.367 3.59364 99.3376 3.33488 99.2607 3.0889C99.2085 2.92285 99.0583 2.80892 98.8868 2.80548ZM73.3631 2.00982C73.1584 2.03139 72.9748 2.14753 72.8653 2.32473C72.7 2.55548 72.5613 2.80486 72.4522 3.06791C72.318 3.36392 72.1816 3.71242 72.0515 4.1176C71.9214 4.52278 71.7933 4.93426 71.6714 5.36253C71.5496 5.7908 71.4277 6.25267 71.3224 6.68934C71.217 7.12601 71.1158 7.55638 71.0249 7.96576C70.9341 8.37514 70.8556 8.73624 70.7895 9.07004C70.7234 9.40384 70.6697 9.66836 70.6304 9.8783L70.4631 10.781L70.8783 9.97907C71.0456 9.66206 71.2356 9.32406 71.4463 8.98186C71.657 8.63966 71.8677 8.27857 72.0887 7.89858C72.3097 7.51859 72.5163 7.13651 72.7228 6.74182C72.9294 6.34714 73.1194 5.93986 73.2908 5.51998C73.4611 5.10492 73.6053 4.67929 73.7225 4.24566C73.8397 3.80792 73.9178 3.36034 73.9559 2.90835C73.9559 2.88736 73.9539 2.84957 73.9435 2.73201C73.9324 2.63368 73.9095 2.5371 73.8754 2.44439C73.8371 2.3414 73.7812 2.24614 73.7101 2.16307C73.622 2.06292 73.4953 2.00692 73.3631 2.00982Z" fill="url(#paint0_linear_994_9273)"/>
<defs>
<linearGradient id="paint0_linear_994_9273" x1="-18.7342" y1="13.7753" x2="50.0146" y2="46.0621" gradientUnits="userSpaceOnUse">
<stop stop-color="#00B993"/>
<stop offset="1" stop-color="#0080BC"/>
</linearGradient>
</defs>
</svg>
